<svg width="32" height="32" viewBox="0 0 32 32" fill="none" xmlns="http://www.w3.org/2000/svg">
  <!-- Fond avec dégradé bleu représentant la logistique -->
  <rect width="32" height="32" rx="6" fill="url(#gradient)"/>
  
  <!-- Icône de camion/livraison -->
  <path d="M6 20h2.5l1.5-2h8l1.5 2H22v-8h-3v-2h-3V8H6v12z" fill="white" opacity="0.9"/>
  <path d="M8 22a2 2 0 1 0 0-4 2 2 0 0 0 0 4z" fill="white"/>
  <path d="M20 22a2 2 0 1 0 0-4 2 2 0 0 0 0 4z" fill="white"/>
  
  <!-- Flèche de flux logistique -->
  <path d="M16 6l3 3h-2v4h-2V9h-2l3-3z" fill="#1976D2" opacity="0.8"/>
  
  <defs>
    <linearGradient id="gradient" x1="0%" y1="0%" x2="100%" y2="100%">
      <stop offset="0%" style="stop-color:#2196F3;stop-opacity:1" />
      <stop offset="100%" style="stop-color:#1976D2;stop-opacity:1" />
    </linearGradient>
  </defs>
</svg>